<svg version="1" xmlns="http://www.w3.org/2000/svg" width="1365.333" height="1365.333" viewBox="0 0 1024.000000 1024.000000"><path d="M892.8 182.5c-.1.1-3.2.5-6.8.8-14.3 1.4-32.2 7.6-43.3 15.2-2.4 1.7-9.7 8.7-12.2 11.7-3 3.6-8.5 11.5-8.5 12.2 0 .4-1 2.3-2.3 4.4-1.3 2-4.4 7.5-6.9 12.2-2.5 4.7-12.6 23.3-22.3 41.5-29.9 55.4-57.7 110.1-69 135.5-2.1 4.7-5.1 11.4-6.8 15-9.2 20.1-9.4 20.6-16.8 38.5-3.4 8.2-6.6 15.5-7.1 16.1-1.2 1.7-8.3.1-12.3-2.8-7.6-5.4-7.8-6-8.1-26.1-.2-17.8-1.1-43.8-1.9-54.7-.2-3-.7-9.8-1-15-1.6-23.1-2.3-33.5-3.1-41.5-.3-3.3-.7-8-.9-10.5-.4-4.5-1.3-14.1-2-21-.2-1.9-.6-6.4-1-10-.6-5.8-3-24.1-4-29.5-1.4-8.2-1.9-10.9-3.7-18-2.6-10.9-7.5-25.8-10.5-32.5-1.4-3-3.2-7.3-4.1-9.5-5.1-12.9-15.8-18.6-35.7-19-24.9-.5-54.5 13.9-67.3 32.7-1.8 2.6-3.2 5.3-3.2 6.2 0 .8-.4 1.7-.9 2.1-.9.5-2.7 9.1-2.3 10.7.1.5-.1.8-.6.8-.4 0-2.3-2.6-4.1-5.7-8.6-14.3-25.2-29.8-40.6-37.8-3.8-2-7.4-4-8-4.4-1.7-1.2-11.5-4.8-20-7.5-12.2-3.7-12.9-3.9-20-5.1-1.6-.3-4.1-.8-5.5-1-6.9-1.4-23.4-2.8-34-2.9-10.6 0-36.2 1.2-38.2 1.9-.7.2-3.1.6-5.3.9-8.8 1.1-12.5 1.8-24.5 4.8-11.1 2.7-25.4 7.2-31.7 9.8-1.3.6-3.3 1.4-4.5 1.9-4 1.7-27 12.2-38.4 17.6-20 9.4-41.1 24.2-60.4 42-9.9 9.2-24.9 24.4-31 31.4-3 3.5-6.2 7.1-7.1 8-8.1 8.2-34 42.3-46.3 61-7.9 11.9-16.6 25.9-16.6 26.6 0 .2-2.2 4.1-4.8 8.7-22 38.1-44.3 96.5-53.8 140.8-1.7 8.1-5.4 28.2-5.9 32.5-.3 2.7-.7 6.1-1 7.5-2 13-3 29.1-3 51.5 0 23.3.6 32.8 3 51.5.3 1.9.8 5.9 1.1 8.9.3 3 .8 6.4 1 7.5.3 1.2.7 3.9 1 6.1.3 2.2 1.8 9.2 3.4 15.5 12.1 48.8 38.4 82.1 79.1 100.1 14.3 6.3 44.1 15.2 58.3 17.5 2.1.3 4.8.8 6 1 1.1.2 4.4.7 7.1 1 2.8.3 6.4.7 8 .9 4 .5 33.2.6 37 0 1.7-.2 5.7-.6 9-1 20.2-1.9 50.7-9.3 74-17.9 22.8-8.4 53-25.1 69.1-38.2 21.7-17.6 29.7-28.1 29.7-38.9 0-6.6-3.1-11.7-8-13.1-6-1.8-10.1-4.2-12-7-1.7-2.7-1.7-3.5-1.2-36.4.2-11.1 0-14.1-1.5-16.8-5-9.5-29-18.4-50.1-18.3-14.7 0-25.8 4-49.2 18-17.6 10.5-24.5 12.6-40.4 12.5-21.7-.3-42.5-13.4-51.8-32.8-4.5-9.4-5.3-12.1-7-23.1-1-6-.7-31.5.4-39 1.8-12.4 9.6-43.7 12.5-50 .5-1.1 2.5-6.3 4.5-11.5 11.7-30.3 23.5-51.2 45.4-80.5 24.8-33 40.4-47.9 66.3-62.9 3.6-2.2 19.2-7.9 27.8-10.3 5.7-1.5 13.3-1.3 16.8.6 2.7 1.4 5.6 5.7 7.1 10.2 1.9 6 1.8 10.7-.6 20.9-1.9 8.2-2.3 23.2-.9 31 2.8 15.3 11.1 25.5 24.3 30.2 12.3 4.3 34.1 4.4 52.3.2 20.7-4.8 44.9-17.6 58.4-31 10.8-10.8 15.7-18.6 22.7-36.4l3.8-9.5.1 18.5c.1 10.2.3 33.6.5 52s.7 57.1 1 86c.3 28.9.7 71.6 1 95 .3 23.4.7 62.5 1 87 .2 24.5.7 46.4 1 48.5 2.3 15.9 5.4 23.1 13.5 31.6 8.4 8.7 20.3 15.1 33.7 18 3.2.7 6 1.3 6.3 1.4 14 3.4 48.9 4.1 60.3 1.2 24.4-6.1 43-21.4 63-51.9 6.2-9.5 12.8-19.8 14.7-22.8 1.9-3 5.3-8.5 7.7-12.2 2.4-3.7 4.3-6.9 4.3-7.3 0-.3 1.8-3.2 4-6.4s4-6.1 4-6.4c0-.3 1.7-3.4 3.9-6.8 4.8-8.1 15.2-26.5 29.9-53.4 15.3-28 17.3-31.8 21.6-40 2.1-3.9 5.2-9.7 7-13.1 6.2-11.5 34.9-65.7 48.3-91.4 11.3-21.5 16.7-31.6 19.1-36 1.3-2.5 4.4-8.1 6.7-12.5s5.5-10.3 7-13c1.5-2.8 4.8-8.6 7.2-13 2.4-4.4 4.8-8.7 5.3-9.5.6-.8 1.3-2.2 1.7-3 1.5-3.4 25.4-44.9 37.1-64.5 20.5-34.5 29.7-48.8 37.2-58.1 16.7-20.8 24.3-38.9 23.5-56.1-.6-12.3-7.9-31.7-14.8-39.4-3.5-3.9-11.4-9.1-17.7-11.8-3-1.3-8-3.6-11-5.1-3-1.5-9.5-4.1-14.5-5.8-8-2.7-11.9-3.6-24.4-5.7-3.8-.6-25.7-1.5-26.3-1z"/></svg>